<?xml version="1.0" encoding="UTF-8"?>
<svg id="Layer_2" data-name="Layer 2" xmlns="http://www.w3.org/2000/svg" viewBox="0 0 1443.55 907.34">
  <defs>
    <style>
      .cls-1 {
        fill-rule: evenodd;
      }

      .cls-1, .cls-2, .cls-3 {
        stroke-width: 0px;
      }

      .cls-1, .cls-3 {
        fill: #fff;
      }

      .cls-2 {
        fill: #d80000;
      }
    </style>
  </defs>
  <g id="COD_MW3_WORDMARK">
    <g>
      <path id="III" class="cls-2" d="m650.54,562.36h109.61v344.98h-109.61v-344.98Zm-139.08,26.86v318.12h109.62v-344.98h-94.47l-15.15,26.86Zm278.17-26.86v344.73h95.04l14.6-26.26v-318.47h-109.64Z"/>
      <g id="MW_" data-name="MW速">
        <path id="_" data-name="速" class="cls-3" d="m1431.98,486.18c-6.38,0-11.56,5.17-11.56,11.56s5.17,11.56,11.56,11.56,11.57-5.17,11.57-11.56-5.18-11.56-11.57-11.56Zm0,21.33c-5.4,0-9.78-4.38-9.78-9.78s4.38-9.78,9.78-9.78,9.78,4.38,9.78,9.78-4.38,9.78-9.78,9.78Zm3.39-8.84c-.15-.16-.34-.27-.57-.31l.02-.35h.68c.58,0,1.03-.16,1.36-.48.32-.32.48-.75.48-1.29v-2.12c0-.64-.18-1.14-.55-1.48-.36-.35-.87-.52-1.54-.52h-8.26v10.92h2.01v-4.38h4.12l2.01,4.38h2.45l-1.69-3.54c-.17-.38-.34-.65-.49-.82Zm-6.39-1.63v-3.32h6.04c.09,0,.17.02.21.07.05.05.08.12.08.22v2.74c0,.11-.02.18-.08.23-.05.04-.12.06-.21.06h-6.04Z"/>
        <path id="Modern_Warfare" data-name="Modern Warfare" class="cls-3" d="m505.32,331.72l22.27-22.31v-122.32l-22.27-22.32h-172.33l-22.27,22.31v122.3l22.27,22.34h172.33Zm-145.42-126.42c0-1.1.33-1.92,1-2.48.67-.56,1.48-.83,2.45-.83h111.6c1.04,0,1.85.27,2.45.83.6.56.88,1.38.88,2.48v85.91c0,1.03-.3,1.84-.88,2.42-.6.58-1.41.88-2.45.88h-111.6c-.97,0-1.78-.3-2.45-.88-.67-.58-1-1.4-1-2.42v-85.91Zm665.29,66.86h74.3l32.87,59.55h55.96l-31.76-51.98h0c-2.15-3.39-4-6.04-5.55-7.94-1.55-1.9-3.35-3.34-5.39-4.33-2.03-1-4.47-1.61-7.27-1.84v-6.12h20.32l21.9-21.94v-50.45l-22.26-22.34h-182.21v166.96h49.08v-59.58Zm0-73.22h105.83c1.04,0,1.84.31,2.39.94.56.63.82,1.54.82,2.72v32.5c0,1.11-.29,1.98-.82,2.61-.55.63-1.35.94-2.39.94h-105.83v-39.72ZM241.08,352.77h53.08v122.66l-15.43,33.76-77.74.11-49.24-112.62h-8.99l-50.14,112.62H0v-156.52h53.19v111.77h9.44l49.91-111.85h70.07l49.02,111.85h9.44v-111.77Zm351.98-21.06h143.96s22.27-22.32,22.27-22.32v-122.29l-22.27-22.34h-193.05v166.96h49.08Zm0-129.44h113.6c1.04,0,1.86.31,2.5.94.63.63.94,1.5.94,2.61v84.81c0,1.04-.3,1.9-.88,2.57-.6.67-1.41,1-2.45,1h-113.71s0-91.92,0-91.92Zm366.74,129.55h-184.42v-167h184.42v34.51h-135.2v31.61h135.22v34.3h-135.22v32.07h135.2v34.51Zm-53.4,20.97l-20.09,43.96-33.31,72.89-18.08,39.56h50.55l12.9-31.69h86.84l12.82,31.69h53.48l-72.2-156.41h-72.92Zm4.3,94.46l26.19-64.33h10.1l26.01,64.33h-62.3ZM201.54,164.77h92.61v166.96h-53.19v-122.22h-9.44l-49.52,122.22h-70.07l-49.41-122.22h-9.44v122.22H0v-166.96h93.17l49.63,122.99h8.99l49.75-122.99Zm1055.16,188.02h153.85v32.32h-107.77v29.61h107.77v32.12h-107.77v30.04h107.77v32.32h-153.85v-156.41Zm154.02-188.02v166.96h-82.5l-68.18-121.87h-8.43v121.87h-47.64v-166.96h82.61l68.18,121.87h8.43v-121.87h47.53Zm-200.45,288.26c-1.45-1.78-3.15-3.13-5.05-4.06-1.91-.94-4.18-1.51-6.81-1.72v-5.73h19.04l20.52-20.55v-47.25l-20.85-20.93h-163.63v125.04l11.13,24.11h0s3.33,7.21,3.33,7.21l.02.05h0s31.5,0,31.5,0v-55.81h62.53l30.79,55.79h52.43l-29.75-48.7c-2.01-3.19-3.74-5.68-5.2-7.45Zm-15.72-34.35c0,1.04-.27,1.86-.77,2.44-.52.59-1.27.88-2.24.88h-92.07v-37.21h92.07c.16,0,.3.02.44.04.75.08,1.36.35,1.8.85.52.59.77,1.44.77,2.55v30.45Zm-755.69-65.89h-72.92l-71.47,156.41h50.57l12.9-31.69h86.83l12.82,31.69h53.48l-.02-.04-72.18-156.37Zm-68.62,94.47l26.18-64.33h10.1l1.58,3.9,24.43,60.43h-62.29Zm297.59,5.78c-1.45-1.78-3.15-3.13-5.05-4.06-1.91-.94-4.18-1.51-6.81-1.72v-5.73h19.04l20.52-20.55v-47.25l-20.85-20.93h-163.63v125.04l11.13,24.11h0s3.33,7.21,3.33,7.21l.02.05h0s31.5,0,31.5,0v-55.81h62.53l30.79,55.79h52.43l-29.75-48.7c-2.01-3.19-3.74-5.68-5.2-7.45Zm-15.72-34.35c0,1.04-.27,1.86-.77,2.44-.52.59-1.27.88-2.24.88h-92.07v-37.21h92.07c.16,0,.3.02.44.04.75.08,1.36.35,1.8.85.52.59.77,1.44.77,2.55v30.45Zm193.57,31.19h-86.44v59.34h-45.98v-156.42h154.99v32.43h-109.01v32.12h101.28l-14.84,32.54Z"/>
      </g>
      <g id="COD_" data-name="COD速">
        <path id="_-2" data-name="速" class="cls-3" d="m1024.41,88.99c-6.38,0-11.56,5.17-11.56,11.56s5.17,11.56,11.56,11.56,11.57-5.18,11.57-11.56-5.18-11.56-11.57-11.56Zm0,21.33c-5.4,0-9.78-4.38-9.78-9.78s4.38-9.78,9.78-9.78,9.78,4.38,9.78,9.78-4.38,9.78-9.78,9.78Zm3.39-8.84c-.15-.16-.34-.27-.57-.31l.02-.35h.68c.58,0,1.03-.16,1.36-.48.32-.32.48-.75.48-1.29v-2.12c0-.64-.18-1.14-.55-1.48-.36-.35-.87-.52-1.54-.52h-8.26v10.92h2.01v-4.38h4.12l2.01,4.38h2.45l-1.69-3.54c-.17-.38-.34-.65-.49-.82Zm-6.39-1.63v-3.32h6.04c.09,0,.17.02.21.07.05.05.07.12.07.22v2.74c0,.11-.02.18-.07.23-.05.04-.12.06-.21.06h-6.04Z"/>
        <path id="Call_of_Duty" data-name="Call of Duty" class="cls-1" d="m599.03,90.95h-21.62V0h-30.89v112.1h52.52v-21.15Zm57.8,0h-21.62V0h-30.89v112.1h52.52v-21.15Zm-255.92,19.88c.82.87,1.98,1.27,3.18,1.27h41.66c1.2,0,2.37-.4,3.18-1.27,2.87-3.06,7.52-8.34,11.4-13.35.6-.77.89-1.82.89-2.79v-31.04h-28.21v29.78h-16.2V18.68h16.2v29.78h28.21v-31.04c0-.98-.29-2.03-.89-2.79-3.88-5-8.53-10.28-11.4-13.34h0,0c-.82-.87-1.98-1.28-3.18-1.28h-41.65c-1.2,0-2.37.4-3.18,1.27-2.88,3.06-7.53,8.34-11.41,13.35-.6.77-.89,1.82-.89,2.79v77.28c0,.98.29,2.03.89,2.79,3.88,5,8.53,10.28,11.4,13.35Zm94.94-31.76h16.19v33.03h28.21V17.41c0-.98-.29-2.03-.89-2.79-3.88-5-8.53-10.28-11.4-13.34h0c-.82-.87-1.99-1.28-3.19-1.28h-41.66c-1.2,0-2.37.4-3.18,1.27-2.87,3.06-7.52,8.34-11.4,13.34-.6.77-.89,1.82-.89,2.79v94.69h28.21v-33.03Zm0-60.4h16.2v41.76h-16.2V18.68Zm324.18,92.15c.81.87,1.98,1.27,3.18,1.27h41.66c1.2,0,2.37-.4,3.18-1.27,2.87-3.06,7.52-8.34,11.4-13.35.6-.77.89-1.82.89-2.79V0h-28.21v93.42h-16.2V0h-28.21v94.69c0,.98.29,2.03.89,2.79,3.88,5,8.53,10.28,11.4,13.35Zm-31.08,0c2.87-3.06,7.52-8.34,11.4-13.35.6-.77.89-1.82.89-2.79V17.42c0-.98-.29-2.03-.89-2.79-3.88-5-8.53-10.28-11.4-13.34h0c-.82-.88-1.98-1.28-3.18-1.28h-57.13v112.1h57.13c1.2,0,2.37-.4,3.18-1.27Zm-15.91-17.41h-16.18V18.68h16.18v74.75Zm199.23-19.58v38.25h30.38v-38.25l18.5-22.36c.61-.74.94-1.67.94-2.62V0h-26.37v41.67l-6.82,8.13h-2.85l-6.86-8.13V0h-26.32v48.87c0,.95.33,1.88.94,2.62l18.45,22.36Zm-318.17-3.58c.36.39.89.57,1.42.57h21.09c.53,0,1.06-.18,1.42-.57,1.29-1.37,2.33-2.7,4.07-4.94.27-.34.4-.81.4-1.24V29.11c0-.44-.13-.9-.4-1.24-1.73-2.23-2.78-3.57-4.07-4.94-.36-.39-.89-.57-1.42-.57h-21.09c-.53,0-1.06.18-1.42.57-1.29,1.37-2.33,2.7-4.07,4.94-.27.34-.4.81-.4,1.24v34.98c0,.44.13.9.4,1.24,1.73,2.23,2.78,3.57,4.07,4.94Zm8.13-37.46h7.67v27.57h-7.67v-27.57Zm38.25,22.03h13.5v-11.26h-13.5v-9.96h15.23v-11.26h-27.84v48.48h12.6v-16Zm202.31,57.26h28.21V22.95h16.38V0h-60.97v22.95h16.38v89.15Z"/>
      </g>
    </g>
  </g>
</svg>