<?xml version="1.0" encoding="UTF-8"?>
<svg id="Layer_2" data-name="Layer 2" xmlns="http://www.w3.org/2000/svg" viewBox="0 0 647.36 112.1">
  <defs>
    <style>
      .cls-1 {
        fill-rule: evenodd;
      }

      .cls-1, .cls-2 {
        fill: #fff;
        stroke-width: 0px;
      }
    </style>
  </defs>
  <g id="COD_MW3_WORDMARK">
    <g id="COD_" data-name="COD®">
      <path id="_" data-name="®" class="cls-2" d="m635.79,88.99c-6.38,0-11.56,5.17-11.56,11.56s5.17,11.56,11.56,11.56,11.57-5.18,11.57-11.56-5.18-11.56-11.57-11.56Zm0,21.33c-5.4,0-9.78-4.38-9.78-9.78s4.38-9.78,9.78-9.78,9.78,4.38,9.78,9.78-4.38,9.78-9.78,9.78Zm3.39-8.84c-.15-.16-.34-.27-.57-.31l.02-.35h.68c.58,0,1.03-.16,1.36-.48.32-.32.48-.75.48-1.29v-2.12c0-.64-.18-1.14-.55-1.48-.36-.35-.87-.52-1.54-.52h-8.26v10.92h2.01v-4.38h4.12l2.01,4.38h2.45l-1.69-3.54c-.17-.38-.34-.65-.49-.82Zm-6.39-1.63v-3.32h6.04c.09,0,.17.02.21.07.05.05.07.12.07.22v2.74c0,.11-.02.18-.07.23-.05.04-.12.06-.21.06h-6.04Z"/>
      <path id="Call_of_Duty" data-name="Call of Duty" class="cls-1" d="m210.41,90.95h-21.62V0h-30.89v112.1h52.52v-21.15Zm57.8,0h-21.62V0h-30.89v112.1h52.52v-21.15ZM12.3,110.83c.82.87,1.98,1.27,3.18,1.27h41.66c1.2,0,2.37-.4,3.18-1.27,2.87-3.06,7.52-8.34,11.4-13.35.6-.77.89-1.82.89-2.79v-31.04h-28.21v29.78h-16.2V18.68h16.2v29.78h28.21v-31.04c0-.98-.29-2.03-.89-2.79-3.88-5-8.53-10.28-11.4-13.34h0,0c-.82-.87-1.98-1.28-3.18-1.28H15.48c-1.2,0-2.37.4-3.18,1.27C9.42,4.33,4.77,9.61.89,14.62c-.6.77-.89,1.82-.89,2.79v77.28c0,.98.29,2.03.89,2.79,3.88,5,8.53,10.28,11.4,13.35Zm94.94-31.76h16.19v33.03h28.21V17.41c0-.98-.29-2.03-.89-2.79-3.88-5-8.53-10.28-11.4-13.34h0c-.82-.87-1.99-1.28-3.19-1.28h-41.66c-1.2,0-2.37.4-3.18,1.27-2.87,3.06-7.52,8.34-11.4,13.34-.6.77-.89,1.82-.89,2.79v94.69h28.21v-33.03Zm0-60.4h16.2v41.76h-16.2V18.68Zm324.18,92.15c.81.87,1.98,1.27,3.18,1.27h41.66c1.2,0,2.37-.4,3.18-1.27,2.87-3.06,7.52-8.34,11.4-13.35.6-.77.89-1.82.89-2.79V0h-28.21v93.42h-16.2V0h-28.21v94.69c0,.98.29,2.03.89,2.79,3.88,5,8.53,10.28,11.4,13.35Zm-31.08,0c2.87-3.06,7.52-8.34,11.4-13.35.6-.77.89-1.82.89-2.79V17.42c0-.98-.29-2.03-.89-2.79-3.88-5-8.53-10.28-11.4-13.34h0c-.82-.88-1.98-1.28-3.18-1.28h-57.13v112.1h57.13c1.2,0,2.37-.4,3.18-1.27Zm-15.91-17.41h-16.18V18.68h16.18v74.75Zm199.23-19.58v38.25h30.38v-38.25l18.5-22.36c.61-.74.94-1.67.94-2.62V0h-26.37v41.67l-6.82,8.13h-2.85l-6.86-8.13V0h-26.32v48.87c0,.95.33,1.88.94,2.62l18.45,22.36Zm-318.17-3.58c.36.39.89.57,1.42.57h21.09c.53,0,1.06-.18,1.42-.57,1.29-1.37,2.33-2.7,4.07-4.94.27-.34.4-.81.4-1.24V29.11c0-.44-.13-.9-.4-1.24-1.73-2.23-2.78-3.57-4.07-4.94-.36-.39-.89-.57-1.42-.57h-21.09c-.53,0-1.06.18-1.42.57-1.29,1.37-2.33,2.7-4.07,4.94-.27.34-.4.81-.4,1.24v34.98c0,.44.13.9.4,1.24,1.73,2.23,2.78,3.57,4.07,4.94Zm8.13-37.46h7.67v27.57h-7.67v-27.57Zm38.25,22.03h13.5v-11.26h-13.5v-9.96h15.23v-11.26h-27.84v48.48h12.6v-16Zm202.31,57.26h28.21V22.95h16.38V0h-60.97v22.95h16.38v89.15Z"/>
    </g>
  </g>
</svg>