<?xml version="1.0" encoding="UTF-8"?>
<svg id="Layer_2" data-name="Layer 2" xmlns="http://www.w3.org/2000/svg" viewBox="0 0 1213.86 112.1">
  <defs>
    <style>
      .cls-1, .cls-2 {
        fill-rule: evenodd;
      }

      .cls-1, .cls-2, .cls-3 {
        stroke-width: 0px;
      }

      .cls-1, .cls-3 {
        fill: #fff;
      }

      .cls-2 {
        fill: #bd2028;
      }
    </style>
  </defs>
  <g id="COD_MW3_WORDMARK">
    <g>
      <g id="COD_" data-name="COD®">
        <path id="_" data-name="®" class="cls-3" d="m1202.29,88.99c-6.38,0-11.56,5.17-11.56,11.56s5.17,11.56,11.56,11.56,11.57-5.18,11.57-11.56-5.18-11.56-11.57-11.56Zm0,21.33c-5.4,0-9.78-4.38-9.78-9.78s4.38-9.78,9.78-9.78,9.78,4.38,9.78,9.78-4.38,9.78-9.78,9.78Zm3.39-8.84c-.15-.16-.34-.27-.57-.31l.02-.35h.68c.58,0,1.03-.16,1.36-.48.32-.32.48-.75.48-1.29v-2.12c0-.64-.18-1.14-.55-1.48-.36-.35-.87-.52-1.54-.52h-8.26v10.92h2.01v-4.38h4.12l2.01,4.38h2.45l-1.69-3.54c-.17-.38-.34-.65-.49-.82Zm-6.39-1.63v-3.32h6.04c.09,0,.17.02.21.07.05.05.07.12.07.22v2.74c0,.11-.02.18-.07.23-.05.04-.12.06-.21.06h-6.04Z"/>
        <path id="Call_of_Duty" data-name="Call of Duty" class="cls-1" d="m776.91,90.95h-21.62V0h-30.89v112.1h52.52v-21.15Zm57.8,0h-21.62V0h-30.89v112.1h52.52v-21.15Zm-255.92,19.88c.82.87,1.98,1.27,3.18,1.27h41.66c1.2,0,2.37-.4,3.18-1.27,2.87-3.06,7.52-8.34,11.4-13.35.6-.77.89-1.82.89-2.79v-31.04h-28.21v29.78h-16.2V18.68h16.2v29.78h28.21v-31.04c0-.98-.29-2.03-.89-2.79-3.88-5-8.53-10.28-11.4-13.34h0,0c-.82-.87-1.98-1.28-3.18-1.28h-41.65c-1.2,0-2.37.4-3.18,1.27-2.88,3.06-7.53,8.34-11.41,13.35-.6.77-.89,1.82-.89,2.79v77.28c0,.98.29,2.03.89,2.79,3.88,5,8.53,10.28,11.4,13.35Zm94.94-31.76h16.19v33.03h28.21V17.41c0-.98-.29-2.03-.89-2.79-3.88-5-8.53-10.28-11.4-13.34h0c-.82-.87-1.99-1.28-3.19-1.28h-41.66c-1.2,0-2.37.4-3.18,1.27-2.87,3.06-7.52,8.34-11.4,13.34-.6.77-.89,1.82-.89,2.79v94.69h28.21v-33.03Zm0-60.4h16.2v41.76h-16.2V18.68Zm324.18,92.15c.81.87,1.98,1.27,3.18,1.27h41.66c1.2,0,2.37-.4,3.18-1.27,2.87-3.06,7.52-8.34,11.4-13.35.6-.77.89-1.82.89-2.79V0h-28.21v93.42h-16.2V0h-28.21v94.69c0,.98.29,2.03.89,2.79,3.88,5,8.53,10.28,11.4,13.35Zm-31.08,0c2.87-3.06,7.52-8.34,11.4-13.35.6-.77.89-1.82.89-2.79V17.42c0-.98-.29-2.03-.89-2.79-3.88-5-8.53-10.28-11.4-13.34h0c-.82-.88-1.98-1.28-3.18-1.28h-57.13v112.1h57.13c1.2,0,2.37-.4,3.18-1.27Zm-15.91-17.41h-16.18V18.68h16.18v74.75Zm199.23-19.58v38.25h30.38v-38.25l18.5-22.36c.61-.74.94-1.67.94-2.62V0h-26.37v41.67l-6.82,8.13h-2.85l-6.86-8.13V0h-26.32v48.87c0,.95.33,1.88.94,2.62l18.45,22.36Zm-318.17-3.58c.36.39.89.57,1.42.57h21.09c.53,0,1.06-.18,1.42-.57,1.29-1.37,2.33-2.7,4.07-4.94.27-.34.4-.81.4-1.24V29.11c0-.44-.13-.9-.4-1.24-1.73-2.23-2.78-3.57-4.07-4.94-.36-.39-.89-.57-1.42-.57h-21.09c-.53,0-1.06.18-1.42.57-1.29,1.37-2.33,2.7-4.07,4.94-.27.34-.4.81-.4,1.24v34.98c0,.44.13.9.4,1.24,1.73,2.23,2.78,3.57,4.07,4.94Zm8.13-37.46h7.67v27.57h-7.67v-27.57Zm38.25,22.03h13.5v-11.26h-13.5v-9.96h15.23v-11.26h-27.84v48.48h12.6v-16Zm202.31,57.26h28.21V22.95h16.38V0h-60.97v22.95h16.38v89.15Z"/>
      </g>
      <polygon class="cls-2" points="491.7 23.89 491.47 23.89 469.65 45.73 469.5 45.73 447.75 23.96 447.65 23.93 447.57 23.93 447.48 23.93 447.39 23.96 437.42 33.93 437.42 34.16 459.25 55.98 459.25 56.12 437.42 77.95 437.42 78.17 447.45 88.21 447.68 88.21 469.5 66.39 469.65 66.39 491.47 88.21 491.7 88.21 501.73 78.17 501.73 77.95 479.91 56.12 479.91 55.98 501.73 34.16 501.73 33.93 491.7 23.89"/>
      <g id="PAMP">
        <g id="PAMP-2" data-name="PAMP">
          <g id="PAMP-3" data-name="PAMP">
            <path class="cls-3" d="m29.52,0C45.06,0,56.9,7.54,56.9,20.93s-12.79,22.49-26.31,22.49c-2.99,0-5.98-.35-8.74-1.67,10.28-.6,21.42-6.93,21.42-18.42,0-10.52-7.42-14.7-16.99-14.7-2.87,0-5.63.23-8.37.71v53.95c0,6.7-.12,11.48,6.22,15.06v.36H.33v-.36c6.1-2.14,5.39-11,5.39-16.38V16.87C5.72,11.48,6.43,2.75.45.35V0h29.07Z"/>
            <path class="cls-3" d="m344.16.05c15.53,0,27.38,7.53,27.38,20.93s-12.8,22.48-26.31,22.48c-2.98,0-5.98-.36-8.73-1.67,10.28-.6,21.41-6.94,21.41-18.42,0-10.53-7.41-14.71-16.98-14.71-2.87,0-5.62.24-8.37.71v53.95c0,6.69-.13,11.48,6.21,15.06v.36h-23.8v-.36c6.09-2.15,5.38-11,5.38-16.38V16.91c0-5.39.71-14.11-5.27-16.51V.05h29.08Z"/>
            <path class="cls-3" d="m96.03,49.16l-6.22,16.86c-2.51,6.7-3.35,10.17,2.39,12.31v.36h-22.01v-.36c6.94-3.46,8.97-10.16,11.6-16.98l19.97-49.88c1.68-4.31,3.95-9.32-1.79-11.13V0h18.9l24.88,61.35c2.75,6.82,4.89,13.52,11.72,16.98v.36h-24.51v-.36c5.85-2.62,4.9-3.94,1.67-12.31l-6.46-16.86h-30.14Zm14.95-38.99l-11.83,30.14h23.56l-11.72-30.14Z"/>
            <path class="cls-3" d="m251.89,7.53c.97-2.51,1.8-4.91,1.8-7.42V0h20.69v.35c-2.87.85-3.71,4.32-3.71,7.06l7.9,58.74c.72,5.62,1.31,8.84,6.1,12.18v.36h-23.08v-.36c4.19-1.31,4.9-4.89,4.9-8.96l-6.83-57.64-26.79,68.53c-5.97-4.54-7.65-7.77-10.51-14.48l-22.73-53.94-6.82,51.44c-.95,7.29-1.79,12.56,3.84,15.06v.36h-19.5v-.36c5.02-4.41,5.75-10.27,6.7-16.73l6.81-50.12c.48-3.35,1.81-8.12-3.7-11.13V0h20.93v.12c0,1.93.96,3.71,1.67,5.4l22.48,52.74,19.85-50.72Z"/>
          </g>
          <path class="cls-3" d="m364.89,65.33c3.7,0,6.99,2.66,6.99,6.79s-3.29,6.82-6.99,6.82-6.99-2.67-6.99-6.82,3.3-6.79,6.99-6.79m0,12.16c2.83,0,5.13-2.26,5.13-5.37s-2.31-5.33-5.13-5.33-5.12,2.23-5.12,5.33,2.27,5.37,5.12,5.37m-2.71-9.2h2.88c1.91,0,2.99.61,2.99,2.27,0,1.4-.87,1.93-2.01,2.04l2.04,3.32h-1.58l-1.86-3.26h-.94v3.26h-1.52v-7.63Zm1.52,3.2h1.34c.86,0,1.49-.13,1.49-1.06,0-.82-.87-.94-1.55-.94h-1.27v2.01Z"/>
        </g>
        <path id="Produits_Artistiques_Metaux_Precieux" data-name="Produits Artistiques Metaux Precieux" class="cls-3" d="m5.6,92.29c2.99,0,5.26,1.45,5.26,4.02s-2.45,4.31-5.04,4.31c-.58,0-1.15-.07-1.68-.32,1.98-.12,4.11-1.33,4.11-3.54,0-2.01-1.42-2.82-3.26-2.82-.55,0-1.07.04-1.61.14v10.35c0,1.28-.02,2.2,1.19,2.89v.07H0v-.07c1.17-.42,1.03-2.11,1.03-3.14v-8.65c0-1.04.14-2.71-1.01-3.17v-.07h5.57Zm6.43,4.54v.07c.98.57.85,1.4.85,2.45v5.49c0,1.05.13,1.9-.87,2.48v.07h3.83v-.07c-1.01-.58-.87-1.43-.87-2.48v-3.21c0-2.36.73-3.29,2.48-3.29.39,0,.8.1,1.05.37v-2.11l-.82-.07c-1.15,0-2.2.71-2.71,1.75v-1.75h-.07c-.32.28-.87.3-1.4.3h-1.47Zm8.01,5.37c0,3.27,2.66,5.48,5.81,5.48s5.99-2.38,5.99-5.69c0-1.56-.71-3.08-1.88-4.1-1.1-.97-2.37-1.36-3.84-1.36-3.3,0-6.08,2.23-6.08,5.67m9.48.28c0,2.07-1.45,3.69-3.56,3.69-2.34,0-3.6-2.27-3.6-4.39s1.38-3.74,3.51-3.74c2.46,0,3.65,2.21,3.65,4.43m11.73-10.19v.07c1.01.6.87,1.43.87,2.49v3.03c-.97-.85-2.25-1.33-3.53-1.33-3.14,0-5.44,2.5-5.44,5.6,0,3.42,2.45,5.55,5.81,5.55.41,0,.81,0,1.19-.11l1.35-2.07c-.62.39-1.24.66-1.97.66-2.41,0-4.07-2.05-4.07-4.35,0-2.09,1.49-3.77,3.33-3.77,1.22,0,2.39.55,2.96,1.65.44.86.37,1.87.37,2.78v4.91h2.96v-.07c-1.01-.55-.87-1.4-.87-2.46v-12.94h-.07c-.25.36-.8.36-1.33.36h-1.56Zm12.87,4.54v.07c1.01.59.87,1.42.87,2.5v3.54c0,1.77-1.1,3-2.62,3-1.99,0-2.58-1.31-2.58-3.42v-5.99h-.07c-.32.28-.89.3-1.4.3h-1.5v.07c1.02.57.87,1.42.87,2.48v3.54c0,3.23,1.29,4.77,4,4.77,1.61,0,2.48-.53,3.3-1.79v1.5h2.96v-.07c-1-.53-.87-1.38-.87-2.43v-8.36h-.07c-.41.39-1.12.3-1.72.3h-1.17Zm5.4,0v.07c1.01.57.87,1.4.87,2.45v5.49c0,1.05.14,1.91-.87,2.48v.07h3.83v-.07c-1-.58-.87-1.43-.87-2.48v-8.38h-.07c-.39.34-.97.36-1.49.36h-1.4Zm1.83-1.38c.78,0,1.38-.69,1.38-1.44s-.6-1.43-1.38-1.43-1.49.55-1.49,1.36.65,1.51,1.49,1.51m7.18,2.89h1.38c.6,0,1.29-.04,1.65.44h.07v-2.09h-.07c-.23.14-.57.14-.87.14h-2.16v-3.42h-.92c0,2.14-.57,3.74-2.73,4.11v.83h1.56v4.78c0,.89-.32,4.56,3.24,4.56.25,0,.51-.04.73-.11l1.22-1.64c-.3.12-.6.23-.92.23-2.45,0-2.18-2.36-2.18-3.23v-4.59Zm11.45-1.52c-.82-.22-1.7-.3-2.55-.3-1.97,0-4.5.65-4.5,3.08,0,3.49,6.23,2.76,6.23,5.08,0,1.17-1.59,1.49-2.53,1.49-1.59,0-2.99-.43-4.31-1.28l.8,2.24c.96.39,1.95.55,2.98.55,2.96,0,5.15-1.44,5.15-3.58,0-3.65-6.22-2.91-6.22-4.95,0-.92,1.38-1.11,2.14-1.11,1,0,1.97.27,2.82.74v-1.95Zm19.46,4.89l1.24,3.24c.62,1.61.8,1.86-.32,2.36v.07h4.7v-.07c-1.31-.67-1.72-1.95-2.25-3.26l-4.77-11.77h-3.63v.07c1.1.35.67,1.31.35,2.13l-3.83,9.57c-.51,1.31-.89,2.6-2.23,3.26v.07h4.23v-.07c-1.1-.42-.94-1.08-.45-2.36l1.19-3.24h5.78Zm-.66-1.69h-4.53l2.27-5.78,2.25,5.78Zm7.43-3.2v.07c.98.57.86,1.4.86,2.45v5.49c0,1.05.13,1.9-.88,2.48v.07h3.83v-.07c-1-.58-.87-1.43-.87-2.48v-3.21c0-2.36.73-3.29,2.47-3.29.4,0,.8.1,1.05.37v-2.11l-.82-.07c-1.14,0-2.21.71-2.71,1.75v-1.75h-.07c-.32.28-.87.3-1.4.3h-1.47Zm10.74,1.52h1.37c.6,0,1.29-.04,1.65.44h.07v-2.09h-.07c-.23.14-.58.14-.87.14h-2.15v-3.42h-.92c0,2.14-.58,3.74-2.73,4.11v.83h1.56v4.78c0,.89-.32,4.56,3.24,4.56.25,0,.51-.04.73-.11l1.22-1.64c-.3.12-.6.23-.92.23-2.46,0-2.18-2.36-2.18-3.23v-4.59Zm4.28-1.52v.07c1.01.57.88,1.4.88,2.45v5.49c0,1.05.14,1.91-.88,2.48v.07h3.84v-.07c-1-.58-.87-1.43-.87-2.48v-8.38h-.07c-.38.34-.96.36-1.49.36h-1.41Zm1.84-1.38c.78,0,1.38-.69,1.38-1.44s-.6-1.43-1.38-1.43-1.49.55-1.49,1.36.64,1.51,1.49,1.51m11.06,1.38c-.82-.22-1.69-.3-2.55-.3-1.97,0-4.49.65-4.49,3.08,0,3.49,6.22,2.76,6.22,5.08,0,1.17-1.59,1.49-2.53,1.49-1.58,0-2.99-.43-4.31-1.28l.8,2.24c.97.39,1.95.55,2.99.55,2.96,0,5.14-1.44,5.14-3.58,0-3.65-6.22-2.91-6.22-4.95,0-.92,1.37-1.11,2.13-1.11,1.01,0,1.97.27,2.82.74v-1.95Zm5.99,1.52h1.38c.6,0,1.28-.04,1.65.44h.07v-2.09h-.07c-.23.14-.58.14-.87.14h-2.16v-3.42h-.91c0,2.14-.58,3.74-2.74,4.11v.83h1.56v4.78c0,.89-.32,4.56,3.24,4.56.25,0,.51-.04.73-.11l1.22-1.64c-.3.12-.6.23-.92.23-2.46,0-2.19-2.36-2.19-3.23v-4.59Zm4.3-1.52v.07c1.01.57.87,1.4.87,2.45v5.49c0,1.05.14,1.91-.87,2.48v.07h3.83v-.07c-1-.58-.87-1.43-.87-2.48v-8.38h-.08c-.39.34-.96.36-1.48.36h-1.4Zm1.83-1.38c.78,0,1.38-.69,1.38-1.44s-.6-1.43-1.38-1.43-1.49.55-1.49,1.36.64,1.51,1.49,1.51m12.62,14.07c0,1.05.14,1.88-.87,2.5v.07h3.84v-.07c-1.01-.62-.87-1.45-.87-2.5v-10.17c0-1.05-.14-1.88.87-2.45v-.07h-5.44c-4.44,0-6.43,2.69-6.43,5.72,0,3.19,2.6,5.14,5.63,5.14.52,0,1.08-.04,1.58-.25l.94-1.42.14-.25c-.61.32-1.18.41-1.86.41-2.35,0-4.12-1.74-4.12-4.06s1.77-3.77,4.09-3.77c.85,0,1.69.12,2.49.37v10.81Zm12.05-12.69v.07c1.01.59.87,1.42.87,2.5v3.54c0,1.77-1.1,3-2.62,3-1.99,0-2.59-1.31-2.59-3.42v-5.99h-.07c-.32.28-.89.3-1.4.3h-1.49v.07c1.01.57.87,1.42.87,2.48v3.54c0,3.23,1.29,4.77,4,4.77,1.6,0,2.48-.53,3.3-1.79v1.5h2.96v-.07c-1.01-.53-.87-1.38-.87-2.43v-8.36h-.07c-.41.39-1.12.3-1.72.3h-1.17Zm16.11,4.91c.08-2.96-2.04-5.21-5.17-5.21-3.42,0-5.74,2.32-5.74,5.51s2.68,5.65,6.58,5.65c1.08,0,2.18-.16,3.17-.57l1.15-2.16h-.07c-1.05.83-2.39,1.21-3.77,1.21-2.59,0-4.54-1.63-4.59-4.43h8.43Zm-8.34-1.33c.28-1.44,1.42-2.36,2.96-2.36,1.65,0,2.71.76,2.96,2.36h-5.92Zm16.94-3.58c-.84-.22-1.7-.3-2.56-.3-1.97,0-4.5.65-4.5,3.08,0,3.49,6.22,2.76,6.22,5.08,0,1.17-1.57,1.49-2.52,1.49-1.58,0-2.99-.43-4.32-1.28l.8,2.24c.96.39,1.95.55,2.98.55,2.97,0,5.15-1.44,5.15-3.58,0-3.65-6.23-2.91-6.23-4.95,0-.92,1.38-1.11,2.14-1.11,1,0,1.97.27,2.83.74v-1.95Zm19.18,6.63l-4.31-10.12c-.14-.32-.32-.66-.32-1.03v-.02h-4.02v.07c1.06.57.8,1.49.71,2.13l-1.3,9.62c-.18,1.23-.33,2.36-1.29,3.21v.07h3.74v-.07c-1.07-.48-.91-1.49-.73-2.89l1.3-9.87,4.37,10.34c.55,1.29.87,1.91,2.01,2.78l5.15-13.15,1.31,11.06c0,.78-.14,1.47-.94,1.72v.07h4.43v-.07c-.92-.65-1.03-1.26-1.17-2.34l-1.52-11.27c0-.53.17-1.19.72-1.35v-.07h-3.97v.02c0,.48-.16.94-.35,1.43l-3.8,9.73Zm21.78-1.72c.08-2.96-2.04-5.21-5.16-5.21-3.42,0-5.74,2.32-5.74,5.51s2.69,5.65,6.59,5.65c1.07,0,2.17-.16,3.16-.57l1.15-2.16h-.07c-1.05.83-2.39,1.21-3.76,1.21-2.6,0-4.54-1.63-4.59-4.43h8.42Zm-8.34-1.33c.28-1.44,1.43-2.36,2.97-2.36,1.65,0,2.71.76,2.96,2.36h-5.93Zm13.07-2.07h1.38c.6,0,1.29-.04,1.66.44h.06v-2.09h-.06c-.24.14-.58.14-.88.14h-2.15v-3.42h-.92c0,2.14-.57,3.74-2.73,4.11v.83h1.55v4.78c0,.89-.31,4.56,3.24,4.56.25,0,.5-.04.73-.11l1.23-1.64c-.31.12-.59.23-.92.23-2.46,0-2.18-2.36-2.18-3.23v-4.59Zm14.78,7.83c-1.9-.2-1.95-.89-1.95-2.7v-3.44c-.03-2.78-1.91-3.49-4.39-3.49l-1.49.14-1.54,2.29c1.03-.48,1.95-.92,3.12-.92.86,0,2.2.37,2.2,1.47,0,2.5-6.86.53-6.86,4.79,0,1.91,1.61,3.37,3.93,3.37.39,0,.8-.04,1.19-.11l1.35-1.73c-.55.17-1.1.32-1.65.32-1.21,0-2.5-.45-2.5-1.88s1.24-1.65,2.33-1.9c.76-.19,1.54-.37,2.2-.72v3.63c0,1.83,1.52,2.29,3.04,2.38l1.01-1.52Zm7.99-9.34v.07c1,.59.87,1.42.87,2.5v3.54c0,1.77-1.1,3-2.61,3-1.99,0-2.59-1.31-2.59-3.42v-5.99h-.07c-.33.28-.9.3-1.4.3h-1.49v.07c1.01.57.87,1.42.87,2.48v3.54c0,3.23,1.29,4.77,4,4.77,1.6,0,2.49-.53,3.3-1.79v1.5h2.96v-.07c-1-.53-.87-1.38-.87-2.43v-8.36h-.07c-.41.39-1.13.3-1.72.3h-1.17Zm10.23,6.38l2.37,3.23c.36.5.76.94,1.44.94h2.49c-.97-.55-1.68-1.47-2.34-2.32l-2.51-3.33,4.27-4.91h-3.82v.07c1.13.36.46,1.21,0,1.77l-1.49,1.76-1.98-2.64c-.59-.78-1.23-.97-2.02-.97h-1.74v.07c.78.44,1.4,1.12,1.95,1.88l2.37,3.08-4.92,5.46v.07h3.71v-.07c-.96-.48-.36-1.11.06-1.58l2.15-2.53Zm14.26-10.93v.07c1.15.46,1.01,2.13,1.01,3.17v8.65c0,1.03.13,2.73-1.03,3.14v.07h4.56v-.07c-1.22-.69-1.2-1.61-1.2-2.89v-10.35c.53-.09,1.05-.14,1.61-.14,1.82,0,3.25.8,3.25,2.82,0,2.21-2.13,3.42-4.11,3.54.52.25,1.11.32,1.68.32,2.59,0,5.05-1.68,5.05-4.31s-2.28-4.02-5.26-4.02h-5.58Zm12,4.54v.07c.99.57.86,1.4.86,2.45v5.49c0,1.05.13,1.9-.88,2.48v.07h3.83v-.07c-1-.58-.87-1.43-.87-2.48v-3.21c0-2.36.74-3.29,2.48-3.29.39,0,.8.1,1.05.37v-2.11l-.82-.07c-1.15,0-2.21.71-2.71,1.75v-1.75h-.08c-.31.28-.87.3-1.4.3h-1.47Zm18.19,4.91c.08-2.96-2.05-5.21-5.17-5.21-3.42,0-5.74,2.32-5.74,5.51s2.69,5.65,6.59,5.65c1.08,0,2.17-.16,3.17-.57l1.15-2.16h-.08c-1.05.83-2.38,1.21-3.76,1.21-2.6,0-4.55-1.63-4.59-4.43h8.43Zm-8.34-1.33c.27-1.44,1.43-2.36,2.96-2.36,1.65,0,2.71.76,2.95,2.36h-5.92Zm18.55-3.6c-.81-.18-1.66-.28-2.48-.28-3.47,0-6.53,1.91-6.53,5.86,0,2.98,2.75,5.3,6.29,5.3,1.01,0,2.06-.09,3.02-.46l1.2-2.18h-.08c-.89.66-2.17,1.12-3.35,1.12-2.55,0-4.77-1.74-4.77-4.39,0-2.18,1.6-3.74,3.84-3.74,1.03,0,2.13.37,2.8,1.12h.07v-2.36Zm2.02.02v.07c1,.57.87,1.4.87,2.45v5.49c0,1.05.14,1.91-.87,2.48v.07h3.83v-.07c-1.01-.58-.87-1.43-.87-2.48v-8.38h-.07c-.39.34-.96.36-1.49.36h-1.4Zm1.84-1.38c.77,0,1.37-.69,1.37-1.44s-.6-1.43-1.37-1.43-1.5.55-1.5,1.36.64,1.51,1.5,1.51m14.61,6.29c.09-2.96-2.04-5.21-5.17-5.21-3.42,0-5.73,2.32-5.73,5.51s2.68,5.65,6.59,5.65c1.08,0,2.18-.16,3.16-.57l1.16-2.16h-.07c-1.05.83-2.39,1.21-3.77,1.21-2.59,0-4.53-1.63-4.58-4.43h8.42Zm-8.33-1.33c.27-1.44,1.42-2.36,2.96-2.36,1.66,0,2.72.76,2.96,2.36h-5.92Zm17.01-3.58v.07c1.01.59.87,1.42.87,2.5v3.54c0,1.77-1.11,3-2.62,3-2,0-2.59-1.31-2.59-3.42v-5.99h-.08c-.31.28-.89.3-1.4.3h-1.49v.07c1,.57.87,1.42.87,2.48v3.54c0,3.23,1.29,4.77,4,4.77,1.6,0,2.48-.53,3.3-1.79v1.5h2.96v-.07c-1.01-.53-.86-1.38-.86-2.43v-8.36h-.08c-.41.39-1.13.3-1.72.3h-1.17Zm10.23,6.38l2.37,3.23c.36.5.75.94,1.45.94h2.48c-.97-.55-1.67-1.47-2.34-2.32l-2.51-3.33,4.27-4.91h-3.82v.07c1.14.36.47,1.21,0,1.77l-1.48,1.76-1.98-2.64c-.59-.78-1.23-.97-2.02-.97h-1.74v.07c.77.44,1.39,1.12,1.95,1.88l2.37,3.08-4.92,5.46v.07h3.72v-.07c-.97-.48-.36-1.11.05-1.58l2.14-2.53Z"/>
      </g>
    </g>
  </g>
</svg>